<svg width="58" height="33" viewBox="0 0 58 33" fill="none" xmlns="http://www.w3.org/2000/svg">
<circle opacity="0.5" cx="24.5212" cy="16.5" r="16.5" fill="#C5D0F5"/>
<path d="M19.872 7.872C19.872 7.368 19.872 7.2 19.872 7.2H11.304C11.304 7.2 11.304 7.584 11.304 7.872C13.128 7.872 13.56 9.12 13.56 10.632V15.12H6.792V10.632C6.792 9.12 7.224 7.872 9.048 7.872C9.048 7.368 9.048 7.2 9.048 7.2H0.48C0.48 7.2 0.48 7.584 0.48 7.872C2.304 7.872 2.736 9.12 2.736 10.632V20.592C2.736 22.104 2.304 23.352 0.48 23.352C0.48 23.64 0.48 24 0.48 24H9.048C9.048 24 9.048 23.856 9.048 23.352C7.224 23.352 6.792 22.104 6.792 20.592V16.08H13.56V20.592C13.56 22.104 13.128 23.352 11.304 23.352C11.304 23.64 11.304 24 11.304 24H19.872C19.872 24 19.872 23.856 19.872 23.352C18.048 23.352 17.616 22.104 17.616 20.592V10.632C17.616 9.12 18.048 7.872 19.872 7.872ZM35.1758 20.592C35.1758 20.592 35.0558 19.608 34.7198 17.208C34.2878 14.184 32.9918 12.888 30.5678 12.888C28.6238 12.888 27.4718 13.752 26.7518 14.76V12.888C26.7518 12.888 26.5117 12.888 26.1038 12.888C24.6638 14.16 22.2158 14.76 20.8238 14.76C20.8238 15.024 20.8238 15.12 20.8238 15.408C22.6478 15.408 22.8878 16.656 22.8878 18.168V20.592C22.8878 22.104 22.6478 23.352 20.8238 23.352C20.8238 23.64 20.8238 24 20.8238 24H28.7198C28.7198 24 28.7198 23.856 28.7198 23.352C26.8958 23.352 26.7518 22.104 26.7518 20.592V17.688C26.7518 16.08 27.3518 14.808 28.7918 14.808C30.4478 14.808 30.6158 16.104 30.8318 17.52C30.9758 18.408 31.3118 20.592 31.3118 20.592C31.4798 22.056 31.4558 23.352 29.6318 23.352C29.6318 23.64 29.6318 24 29.6318 24H37.3358C37.3358 24 37.3358 23.856 37.3358 23.352C35.5118 23.352 35.3678 22.008 35.1758 20.592ZM51.3336 22.2C51.0936 22.608 50.7816 22.8 50.3736 22.704C49.7976 22.56 49.7736 21.72 49.7736 20.568V7.2C49.7736 7.2 49.5336 7.2 49.1256 7.2C47.6616 8.496 45.2136 9.072 43.8216 9.072C43.8216 9.336 43.8216 9.456 43.8216 9.744C45.6456 9.744 45.8856 10.992 45.8856 12.504V14.136C45.2616 13.512 44.3976 13.032 43.3416 12.888C39.6936 12.384 37.1016 15.168 37.1016 18.552C37.1016 21.936 39.7176 24.216 43.3416 24.216C44.5176 24.216 45.5496 23.76 46.3176 23.088C46.8216 23.88 47.7336 24.216 48.9816 24.216C50.3256 24.216 51.1656 23.664 51.7416 22.44L51.3336 22.2ZM44.1816 23.28C42.7176 23.52 41.5656 21.816 41.0616 18.96C40.5576 16.08 41.0616 14.088 42.5016 13.824C43.9656 13.584 45.1176 15.288 45.6216 18.144C46.1256 21.024 45.6216 23.016 44.1816 23.28ZM54.9124 19.848C53.4484 19.848 52.4644 20.808 52.4644 22.032C52.4644 23.256 53.4484 24.216 54.9124 24.216C56.4004 24.216 57.3844 23.256 57.3844 22.032C57.3844 20.808 56.4004 19.848 54.9124 19.848Z" fill="black"/>
</svg>
