<svg width="148" height="48" viewBox="0 0 148 48" fill="none" xmlns="http://www.w3.org/2000/svg">
<circle opacity="0.5" cx="70" cy="24" r="24" fill="#C5D0F5"/>
<path d="M29.808 9.808C29.808 9.052 29.808 8.8 29.808 8.8H16.956C16.956 8.8 16.956 9.376 16.956 9.808C19.692 9.808 20.34 11.68 20.34 13.948V20.68H10.188V13.948C10.188 11.68 10.836 9.808 13.572 9.808C13.572 9.052 13.572 8.8 13.572 8.8H0.72C0.72 8.8 0.72 9.376 0.72 9.808C3.456 9.808 4.104 11.68 4.104 13.948V28.888C4.104 31.156 3.456 33.028 0.72 33.028C0.72 33.46 0.72 34 0.72 34H13.572C13.572 34 13.572 33.784 13.572 33.028C10.836 33.028 10.188 31.156 10.188 28.888V22.12H20.34V28.888C20.34 31.156 19.692 33.028 16.956 33.028C16.956 33.46 16.956 34 16.956 34H29.808C29.808 34 29.808 33.784 29.808 33.028C27.072 33.028 26.424 31.156 26.424 28.888V13.948C26.424 11.68 27.072 9.808 29.808 9.808ZM50.6036 32.128C49.7756 32.524 48.9836 32.488 48.5876 32.02C48.2276 31.552 48.0116 30.112 47.7956 28.852C47.7956 28.852 47.6156 27.412 47.1116 23.776C46.4636 19.24 44.0876 17.332 38.3276 17.332C36.2756 17.332 33.1436 17.908 32.2796 20.248C31.7756 21.508 32.1716 22.516 33.1076 22.984C34.1156 23.452 35.5916 23.344 36.4556 21.796C35.0516 20.644 36.0956 18.412 38.3636 18.592C40.1636 18.592 40.8116 20.5 41.1356 22.336C41.5316 24.82 39.4436 24.1 36.0596 24.784C31.8116 25.648 30.4796 28.096 30.9836 30.724C31.4876 33.352 34.2956 34.324 37.2836 34.324C39.0836 34.324 41.0996 33.892 42.3596 31.948C42.8996 33.676 45.1676 34.324 47.1116 34.324C49.1276 34.324 50.2436 33.676 50.8916 32.92C50.7836 32.56 50.7476 32.524 50.6036 32.128ZM39.8396 32.092C38.5076 32.452 36.8876 31.444 36.6356 29.788C36.3836 27.952 37.4636 26.62 39.0116 26.152C40.8476 25.648 41.2436 25.468 41.5316 24.892C41.6756 25.792 41.8196 27.124 41.9276 28.42C42.0356 30.148 41.5676 31.696 39.8396 32.092ZM71.3458 32.128C70.5178 32.524 69.7258 32.488 69.3298 32.02C68.9698 31.552 68.7538 30.112 68.5378 28.852C68.5378 28.852 68.3578 27.412 67.8538 23.776C67.2058 19.24 64.8298 17.332 59.0698 17.332C57.0178 17.332 53.8858 17.908 53.0218 20.248C52.5178 21.508 52.9138 22.516 53.8498 22.984C54.8578 23.452 56.3338 23.344 57.1978 21.796C55.7938 20.644 56.8378 18.412 59.1058 18.592C60.9058 18.592 61.5538 20.5 61.8778 22.336C62.2738 24.82 60.1858 24.1 56.8018 24.784C52.5538 25.648 51.2218 28.096 51.7258 30.724C52.2298 33.352 55.0378 34.324 58.0258 34.324C59.8258 34.324 61.8418 33.892 63.1018 31.948C63.6418 33.676 65.9098 34.324 67.8538 34.324C69.8698 34.324 70.9858 33.676 71.6338 32.92C71.5258 32.56 71.4898 32.524 71.3458 32.128ZM60.5818 32.092C59.2498 32.452 57.6298 31.444 57.3778 29.788C57.1258 27.952 58.2058 26.62 59.7538 26.152C61.5898 25.648 61.9858 25.468 62.2738 24.892C62.4178 25.792 62.5618 27.124 62.6698 28.42C62.7778 30.148 62.3098 31.696 60.5818 32.092ZM92.088 32.128C91.26 32.524 90.468 32.488 90.072 32.02C89.712 31.552 89.496 30.112 89.28 28.852C89.28 28.852 89.1 27.412 88.596 23.776C87.948 19.24 85.572 17.332 79.812 17.332C77.76 17.332 74.628 17.908 73.764 20.248C73.26 21.508 73.656 22.516 74.592 22.984C75.6 23.452 77.076 23.344 77.94 21.796C76.536 20.644 77.58 18.412 79.848 18.592C81.648 18.592 82.296 20.5 82.62 22.336C83.016 24.82 80.928 24.1 77.544 24.784C73.296 25.648 71.964 28.096 72.468 30.724C72.972 33.352 75.78 34.324 78.768 34.324C80.568 34.324 82.584 33.892 83.844 31.948C84.384 33.676 86.652 34.324 88.596 34.324C90.612 34.324 91.728 33.676 92.376 32.92C92.268 32.56 92.232 32.524 92.088 32.128ZM81.324 32.092C79.992 32.452 78.372 31.444 78.12 29.788C77.868 27.952 78.948 26.62 80.496 26.152C82.332 25.648 82.728 25.468 83.016 24.892C83.16 25.792 83.304 27.124 83.412 28.42C83.52 30.148 83.052 31.696 81.324 32.092ZM114.99 28.888C114.99 28.888 114.81 27.412 114.306 23.812C113.658 19.276 111.714 17.332 108.078 17.332C105.162 17.332 103.434 18.628 102.354 20.14V17.332C102.354 17.332 101.994 17.332 101.382 17.332C99.2222 19.24 95.5502 20.14 93.4622 20.14C93.4622 20.536 93.4622 20.68 93.4622 21.112C96.1982 21.112 96.5582 22.984 96.5582 25.252V28.888C96.5582 31.156 96.1982 33.028 93.4622 33.028C93.4622 33.46 93.4622 34 93.4622 34H105.306C105.306 34 105.306 33.784 105.306 33.028C102.57 33.028 102.354 31.156 102.354 28.888V24.532C102.354 22.12 103.254 20.212 105.414 20.212C107.898 20.212 108.15 22.156 108.474 24.28C108.69 25.612 109.194 28.888 109.194 28.888C109.446 31.084 109.41 33.028 106.674 33.028C106.674 33.46 106.674 34 106.674 34H118.23C118.23 34 118.23 33.784 118.23 33.028C115.494 33.028 115.278 31.012 114.99 28.888ZM139.227 31.3C138.867 31.912 138.399 32.2 137.787 32.056C136.923 31.84 136.887 30.58 136.887 28.852V8.8C136.887 8.8 136.527 8.8 135.915 8.8C133.719 10.744 130.047 11.608 127.959 11.608C127.959 12.004 127.959 12.184 127.959 12.616C130.695 12.616 131.055 14.488 131.055 16.756V19.204C130.119 18.268 128.823 17.548 127.239 17.332C121.767 16.576 117.879 20.752 117.879 25.828C117.879 30.904 121.803 34.324 127.239 34.324C129.003 34.324 130.551 33.64 131.703 32.632C132.459 33.82 133.827 34.324 135.699 34.324C137.715 34.324 138.975 33.496 139.839 31.66L139.227 31.3ZM128.499 32.92C126.303 33.28 124.575 30.724 123.819 26.44C123.063 22.12 123.819 19.132 125.979 18.736C128.175 18.376 129.903 20.932 130.659 25.216C131.415 29.536 130.659 32.524 128.499 32.92Z" fill="black"/>
</svg>
