<svg width="23" height="20" viewBox="0 0 23 20" fill="none" xmlns="http://www.w3.org/2000/svg">
<path fill-rule="evenodd" clip-rule="evenodd" d="M0 9.84553C0 9.47257 0.148158 9.11488 0.411881 8.85116C0.675604 8.58744 1.03329 8.43928 1.40625 8.43928H17.6991L11.6606 2.40365C11.3966 2.1396 11.2482 1.78146 11.2482 1.40803C11.2482 1.0346 11.3966 0.676458 11.6606 0.412402C11.9247 0.148346 12.2828 0 12.6562 0C13.0297 0 13.3878 0.148346 13.6519 0.412402L22.0894 8.8499C22.2203 8.98053 22.3242 9.13571 22.3951 9.30656C22.466 9.4774 22.5025 9.66056 22.5025 9.84553C22.5025 10.0305 22.466 10.2136 22.3951 10.3845C22.3242 10.5553 22.2203 10.7105 22.0894 10.8412L13.6519 19.2787C13.3878 19.5427 13.0297 19.6911 12.6562 19.6911C12.2828 19.6911 11.9247 19.5427 11.6606 19.2787C11.3966 19.0146 11.2482 18.6565 11.2482 18.283C11.2482 17.9096 11.3966 17.5515 11.6606 17.2874L17.6991 11.2518H1.40625C1.03329 11.2518 0.675604 11.1036 0.411881 10.8399C0.148158 10.5762 0 10.2185 0 9.84553Z" fill="black"/>
</svg>
